scaled_model_static_coords.mot
version=1
datacolumns 20
datarows 21
range 2.870000 3.070000
inDegrees=yes
endheader
time	pelvis_tilt	pelvis_list	pelvis_rotation	hip_flexion_r	hip_adduction_r	hip_rotation_r	knee_angle_r	ankle_angle_r	hip_flexion_l	hip_adduction_l	hip_rotation_l	knee_angle_l	ankle_angle_l	pelvis_tx	pelvis_ty	pelvis_tz	lumbar_bending	lumbar_rotation	lumbar_extension
2.870000	7.816459	-0.296813	179.270001	4.979736	-0.550005	-4.911233	2.495654	-1.240799	4.829800	0.847629	-3.399629	2.561052	0.550007	0.715428	0.970669	0.303457	3.630216	-1.949001	9.311182
2.880000	7.835449	-0.283472	179.260982	5.001053	-0.526919	-4.922548	2.481647	-1.231916	4.844314	0.830164	-3.429254	2.563302	0.546140	0.715392	0.970638	0.303449	3.649135	-1.956870	9.331156
2.890000	7.863032	-0.277352	179.251180	5.030480	-0.513989	-4.928568	2.467822	-1.210707	4.866903	0.820589	-3.434890	2.567163	0.531817	0.715341	0.970610	0.303455	3.665550	-1.973271	9.364854
2.900000	7.892738	-0.277663	179.244038	5.062109	-0.512021	-4.930710	2.453428	-1.185756	4.891860	0.818685	-3.421433	2.570578	0.509893	0.715284	0.970594	0.303475	3.676458	-1.992928	9.408105
2.910000	7.917518	-0.280963	179.242047	5.088758	-0.517217	-4.929401	2.439612	-1.171218	4.913091	0.820392	-3.397204	2.570970	0.487731	0.715232	0.970595	0.303508	3.679799	-2.008671	9.452969
2.920000	7.931183	-0.282819	179.246048	5.103227	-0.523191	-4.925965	2.429633	-1.179870	4.925046	0.820114	-3.368839	2.567231	0.474050	0.715201	0.970613	0.303550	3.674781	-2.014107	9.489589
2.930000	7.929837	-0.279871	179.255285	5.100061	-0.524148	-4.924237	2.427908	-1.217558	4.923846	0.813612	-3.338135	2.560830	0.474191	0.715204	0.970640	0.303597	3.662011	-2.006300	9.509386
2.940000	7.912789	-0.270967	179.267726	5.077185	-0.517146	-4.930258	2.438305	-1.281311	4.908216	0.799740	-3.303331	2.555246	0.487440	0.715244	0.970668	0.303644	3.643414	-1.986826	9.507950
2.950000	7.882860	-0.257046	179.280433	5.037039	-0.502514	-4.949628	2.462366	-1.360719	4.880107	0.780411	-3.263422	2.554108	0.508577	0.715320	0.970688	0.303694	3.621865	-1.960830	9.486567
2.960000	7.846036	-0.240488	179.290179	4.986756	-0.483117	-4.983614	2.498186	-1.441302	4.844880	0.759553	-3.221771	2.559175	0.531820	0.715419	0.970695	0.303747	3.600510	-1.934990	9.451993
2.970000	7.810224	-0.224603	179.294181	4.936867	-0.463447	-5.026322	2.540447	-1.508725	4.810533	0.742022	-3.186195	2.569449	0.553199	0.715529	0.970688	0.303807	3.582360	-1.915505	9.414358
2.980000	7.783144	-0.213032	179.290567	4.898447	-0.448617	-5.065396	2.581776	-1.552382	4.785449	0.732713	-3.165828	2.582171	0.570050	0.715634	0.970671	0.303873	3.570456	-1.906495	9.383814
2.990000	7.770026	-0.208657	179.278879	4.879428	-0.442960	-5.086891	2.615044	-1.567054	4.775240	0.735442	-3.167379	2.594893	0.580088	0.715726	0.970650	0.303943	3.567735	-1.908900	9.367221
3.000000	7.772007	-0.212398	179.260926	4.881766	-0.448564	-5.081743	2.635510	-1.552473	4.780613	0.751448	-3.193028	2.606514	0.581902	0.715795	0.970634	0.304016	3.575762	-1.920293	9.366197
3.010000	7.785856	-0.222864	179.241138	4.901203	-0.464587	-5.050090	2.641439	-1.511809	4.797747	0.778468	-3.240493	2.616212	0.575604	0.715839	0.970630	0.304092	3.593267	-1.936168	9.377119
3.020000	7.805409	-0.237248	179.225286	4.929947	-0.487638	-5.001203	2.633149	-1.450137	4.820821	0.811489	-3.304691	2.621926	0.562209	0.715860	0.970641	0.304167	3.616180	-1.952296	9.393049
3.030000	7.824272	-0.252577	179.217947	4.960473	-0.512836	-4.949203	2.612006	-1.373420	4.844837	0.844652	-3.379999	2.620443	0.542822	0.715868	0.970664	0.304238	3.639494	-1.966587	9.406847
3.040000	7.838320	-0.266373	179.220282	4.988063	-0.535048	-4.906786	2.580379	-1.288255	4.867053	0.872834	-3.461731	2.609177	0.519094	0.715874	0.970694	0.304299	3.659672	-1.979223	9.413994
3.050000	7.846575	-0.276708	179.229494	5.011224	-0.550000	-4.880499	2.541888	-1.202201	4.886621	0.892341	-3.545557	2.588215	0.494098	0.715887	0.970723	0.304348	3.676110	-1.991528	9.413858
3.060000	7.850526	-0.282086	179.240082	5.030709	-0.554965	-4.870004	2.501183	-1.123961	4.903455	0.901012	-3.624921	2.561170	0.472108	0.715909	0.970748	0.304383	3.691016	-2.004689	9.409262
3.070000	7.852787	-0.281364	179.246099	5.047999	-0.548898	-4.870871	2.463505	-1.062528	4.917569	0.897961	-3.688766	2.534062	0.457637	0.715939	0.970768	0.304405	3.707924	-2.019020	9.404862
